<svg width="36" height="33" viewBox="0 0 36 33" fill="none" xmlns="http://www.w3.org/2000/svg">
<path d="M17.4444 31.5201L17.4444 31.5201L17.4382 31.5144C16.0005 30.2175 14.5917 28.9542 13.3142 27.8725C13.0759 27.6607 12.8401 27.4515 12.6069 27.2446C9.27666 24.2892 6.48254 21.8096 4.53752 19.3881L4.53617 19.3864C2.23769 16.535 1.25 13.9222 1.25 11.1549C1.25 8.35346 2.15409 5.87655 3.76904 4.09236L3.77382 4.08708L3.77854 4.08174C5.3921 2.25773 7.62242 1.25 10.0599 1.25C11.8314 1.25 13.4556 1.83764 14.9196 2.97661C15.6937 3.60806 16.3743 4.31104 16.9725 5.17452L18 6.65785L19.0275 5.17452C19.6283 4.30722 20.31 3.60267 21.0878 2.97056C22.5322 1.80496 24.1484 1.25 25.9401 1.25C28.369 1.25 30.5639 2.25169 32.2309 4.09231C33.8444 5.875 34.75 8.39807 34.75 11.1549C34.75 13.9674 33.764 16.5329 31.4638 19.3864L31.4625 19.3881C29.5263 21.7986 26.7488 24.2647 23.4378 27.2045C23.1872 27.4269 22.9336 27.6521 22.6771 27.8802C22.4195 28.1064 22.1509 28.3417 21.8737 28.5846C20.8482 29.4829 19.7051 30.4844 18.5624 31.5139L18.5623 31.5139L18.5555 31.5201C18.3745 31.6856 18.1789 31.75 18.0001 31.75C17.8212 31.75 17.6254 31.6856 17.4444 31.5201Z" stroke="black" stroke-width="2.5"/>
</svg>
