<svg width="35" height="34" viewBox="0 0 35 34" fill="none" xmlns="http://www.w3.org/2000/svg">
<mask id="path-1-inside-1" fill="white">
<path fill-rule="evenodd" clip-rule="evenodd" d="M35 15C35 17.2267 34.4339 19.3401 33.4185 21.2402C33.4103 21.2616 33.4013 21.283 33.3913 21.3043C31.514 25.3271 28.3888 28.6368 24.48 30.7415L20.1269 33.0855C19.0105 33.6867 17.6765 32.7936 17.807 31.5323L17.9661 29.9948C17.8112 29.9983 17.6558 30 17.5 30C7.83502 30 0 23.2843 0 15C0 6.71573 7.83502 0 17.5 0C27.165 0 35 6.71573 35 15ZM8.5 18C9.88071 18 11 16.8807 11 15.5C11 14.1193 9.88071 13 8.5 13C7.11929 13 6 14.1193 6 15.5C6 16.8807 7.11929 18 8.5 18ZM20 15.5C20 16.8807 18.8807 18 17.5 18C16.1193 18 15 16.8807 15 15.5C15 14.1193 16.1193 13 17.5 13C18.8807 13 20 14.1193 20 15.5ZM26.5 18C27.8807 18 29 16.8807 29 15.5C29 14.1193 27.8807 13 26.5 13C25.1193 13 24 14.1193 24 15.5C24 16.8807 25.1193 18 26.5 18Z"/>
</mask>
<path d="M33.4185 21.2402L31.6546 20.2975L31.5946 20.4098L31.5493 20.5287L33.4185 21.2402ZM33.3913 21.3043L35.2037 22.15L35.2038 22.1499L33.3913 21.3043ZM24.48 30.7415L23.5318 28.9806L23.5318 28.9806L24.48 30.7415ZM20.1269 33.0855L19.1787 31.3246L19.1787 31.3246L20.1269 33.0855ZM17.807 31.5323L15.8176 31.3265L15.8176 31.3265L17.807 31.5323ZM17.9661 29.9948L19.9554 30.2006L20.1888 27.9445L17.9213 27.9953L17.9661 29.9948ZM35.1824 22.1829C36.3447 20.008 37 17.5725 37 15H33C33 16.8809 32.5232 18.6721 31.6546 20.2975L35.1824 22.1829ZM35.2038 22.1499C35.2341 22.0848 35.2621 22.0187 35.2876 21.9516L31.5493 20.5287C31.5585 20.5046 31.5684 20.4812 31.5789 20.4586L35.2038 22.1499ZM25.4282 32.5025C29.716 30.1937 33.1443 26.563 35.2037 22.15L31.579 20.4585C29.8837 24.0912 27.0615 27.08 23.5318 28.9806L25.4282 32.5025ZM21.0751 34.8465L25.4282 32.5025L23.5318 28.9806L19.1787 31.3246L21.0751 34.8465ZM15.8176 31.3265C15.5219 34.1848 18.545 36.2088 21.0751 34.8465L19.1787 31.3246C19.4759 31.1645 19.8311 31.4023 19.7964 31.7381L15.8176 31.3265ZM15.9767 29.789L15.8176 31.3265L19.7964 31.7381L19.9554 30.2006L15.9767 29.789ZM17.5 32C17.6708 32 17.8411 31.9981 18.0109 31.9943L17.9213 27.9953C17.7813 27.9984 17.6409 28 17.5 28V32ZM-2 15C-2 24.667 7.0308 32 17.5 32V28C8.63924 28 2 21.9016 2 15H-2ZM17.5 -2C7.0308 -2 -2 5.33303 -2 15H2C2 8.09843 8.63924 2 17.5 2V-2ZM37 15C37 5.33303 27.9692 -2 17.5 -2V2C26.3608 2 33 8.09843 33 15H37ZM9 15.5C9 15.7761 8.77614 16 8.5 16V20C10.9853 20 13 17.9853 13 15.5H9ZM8.5 15C8.77614 15 9 15.2239 9 15.5H13C13 13.0147 10.9853 11 8.5 11V15ZM8 15.5C8 15.2239 8.22386 15 8.5 15V11C6.01472 11 4 13.0147 4 15.5H8ZM8.5 16C8.22386 16 8 15.7761 8 15.5H4C4 17.9853 6.01472 20 8.5 20V16ZM17.5 20C19.9853 20 22 17.9853 22 15.5H18C18 15.7761 17.7761 16 17.5 16V20ZM13 15.5C13 17.9853 15.0147 20 17.5 20V16C17.2239 16 17 15.7761 17 15.5H13ZM17.5 11C15.0147 11 13 13.0147 13 15.5H17C17 15.2239 17.2239 15 17.5 15V11ZM22 15.5C22 13.0147 19.9853 11 17.5 11V15C17.7761 15 18 15.2239 18 15.5H22ZM27 15.5C27 15.7761 26.7761 16 26.5 16V20C28.9853 20 31 17.9853 31 15.5H27ZM26.5 15C26.7761 15 27 15.2239 27 15.5H31C31 13.0147 28.9853 11 26.5 11V15ZM26 15.5C26 15.2239 26.2239 15 26.5 15V11C24.0147 11 22 13.0147 22 15.5H26ZM26.5 16C26.2239 16 26 15.7761 26 15.5H22C22 17.9853 24.0147 20 26.5 20V16Z" fill="black" mask="url(#path-1-inside-1)"/>
</svg>
