<svg width="35" height="28" viewBox="0 0 35 28" fill="none" xmlns="http://www.w3.org/2000/svg">
<path d="M19.8803 1.71586C19.8803 1.42692 20.0549 1.16545 20.3219 1.0546C20.5909 0.943582 20.8978 1.00521 21.1021 1.20956L33.1185 13.2259C33.2541 13.3615 33.3293 13.5438 33.3293 13.7322C33.3293 13.9207 33.254 14.103 33.1185 14.2385L31.8343 15.5226L31.8345 15.5226L21.1022 26.2549C20.8979 26.4592 20.5912 26.5209 20.3222 26.4099C20.0551 26.2992 19.8805 26.0376 19.8805 25.7486V20.6262V19.5915L18.8464 19.6267C8.73395 19.9712 3.83437 23.2369 2.55256 24.2559H2.5103L2.21914 24.5393C1.99414 24.7583 1.64928 24.8055 1.37065 24.6517C1.09199 24.4963 0.949788 24.1793 1.0163 23.8724C1.0163 23.8724 1.01639 23.872 1.01658 23.8712C1.02547 23.8336 1.2463 22.8978 1.79391 21.4936C2.35444 20.0564 3.25023 18.147 4.59781 16.2143C7.28548 12.3598 11.7405 8.44344 18.9522 7.92389L19.8803 7.85702V6.92647V1.71586Z" stroke="black" stroke-width="2"/>
</svg>
